<svg xmlns="http://www.w3.org/2000/svg" viewBox="0 0 500 500"><g id="freepik--Floor--inject-34"><ellipse id="freepik--floor--inject-34" cx="250.64" cy="365.18" rx="240.31" ry="124.36" style="fill:#f5f5f5"></ellipse></g><g id="freepik--Shadows--inject-34"><ellipse id="freepik--Shadow--inject-34" cx="374.97" cy="412.16" rx="63.38" ry="39.15" style="fill:#e0e0e0"></ellipse><path id="freepik--shadow--inject-34" d="M140.23,425.53l-89-51.39c-3.11-1.79-3.11-4.7,0-6.49l160.87-92.91a12.46,12.46,0,0,1,11.25,0l89,51.39c3.1,1.8,3.1,4.71,0,6.5l-160.87,92.9A12.39,12.39,0,0,1,140.23,425.53Z" style="fill:#e0e0e0"></path></g><g id="freepik--Clouds--inject-34"><g id="freepik--clouds--inject-34"><path d="M104.21,44.06,95,49.36a10.13,10.13,0,0,0,.08-1.22V45.49c0-4.74-3.32-6.65-7.42-4.29a14.47,14.47,0,0,0-4.42,4.25c-.67-5.94-5.34-8.16-11-4.89-6.13,3.54-11.1,12.15-11.1,19.23v4a10.45,10.45,0,0,0,.94,4.6l-7.62,4.4a9.1,9.1,0,0,0-4.12,7.13c0,2.63,1.84,3.69,4.12,2.38l49.73-28.71a9.13,9.13,0,0,0,4.12-7.13C108.33,43.81,106.48,42.75,104.21,44.06Z" style="fill:#ebebeb"></path><path d="M148.38,63.94l-6.93,4c0-.31.06-.61.06-.91V65c0-3.57-2.51-5-5.6-3.23A10.81,10.81,0,0,0,132.57,65c-.51-4.49-4-6.17-8.31-3.7-4.62,2.67-8.38,9.17-8.38,14.51v3a7.93,7.93,0,0,0,.71,3.47l-5.75,3.32A6.89,6.89,0,0,0,107.73,91c0,2,1.4,2.79,3.11,1.8l37.54-21.67a6.87,6.87,0,0,0,3.1-5.38C151.48,63.76,150.09,63,148.38,63.94Z" style="fill:#ebebeb"></path></g></g><g id="freepik--Plants--inject-34"><g id="freepik--plants--inject-34"><path d="M132.22,366.58c3.46-21,2.91-28.57-6.21-47.26a60.87,60.87,0,0,0-22.31-24.38c-7.92-4.75-15.47-6.23-21.93-3.26-4.21,1.93-7.17,7.22-6,13,1.07,5.14,10.43,14.32,19,21.73,13,11.3,29.91,26.91,32.18,54.88l-1.48,14.29Z" style="fill:#9BBF19"></path><path d="M132.22,366.58c3.46-21,2.91-28.57-6.21-47.26a60.87,60.87,0,0,0-22.31-24.38c-7.92-4.75-15.47-6.23-21.93-3.26-4.21,1.93-7.17,7.22-6,13,1.07,5.14,10.43,14.32,19,21.73,13,11.3,29.91,26.91,32.18,54.88l-1.48,14.29Z" style="opacity:0.2"></path><path d="M128.75,377.81a.73.73,0,0,1-.52-.8c5.52-37.46-19.61-67.89-39.86-75.45a.72.72,0,0,1-.42-.92.71.71,0,0,1,.92-.41c20.7,7.73,46.39,38.78,40.77,77a.71.71,0,0,1-.81.6Z" style="fill:#fff"></path><path d="M131.27,409.33c-.35.31-.71.62-1.08.92-4.93,4-12.36,5.11-18.56,5.24-4.09.08-9.6.17-13.07-2.3-1.72-1.22-2.94-3.39-2.4-5.42.58-2.2,3-3.8,2.85-6.07-4.6-.7-9.53,1.31-13.83-.46-3.24-1.33-5.29-4.48-7.14-7.45C77,392,75.82,390,76.41,388c.7-2.34,3.39-3.34,5.71-4.1a4.7,4.7,0,0,0,1.72-.85,1.63,1.63,0,0,0,.53-1.74c-.29-.74-1.19-1-2-1.1-1.68-.24-3.38-.26-5-.59a7.6,7.6,0,0,1-4.42-2.32c-1.29-1.55-1.56-3.69-1.72-5.7a86,86,0,0,1-.3-10.28c0-.82-.41-9-.69-8.85,8-3.24,17-4.08,25.47-3.76,4.75.18,11.77,1.18,14.6,5.63a8.94,8.94,0,0,1,1.25,4.22c0,.53-.32,3.31,0,3.51a.64.64,0,0,0,.78-.16,1.8,1.8,0,0,0,.36-.78c.43-1.46,1.14-2.63,1.58-4s.35-2.86,1.28-4a4.54,4.54,0,0,1,3.7-1.33c5,.14,9.26,4.2,11.16,8.85s1.94,9.83,1.95,14.85l2.4-4.91c2.79-5.73,5.93,4.9,6.42,6.9a32.08,32.08,0,0,1-9.87,31.86Z" style="fill:#9BBF19"></path><path d="M131.72,410.62a.67.67,0,0,1-.55-.46c-6.92-21.47-39.74-49.83-52.3-54.12a.68.68,0,0,1-.43-.86.69.69,0,0,1,.87-.43c12.77,4.36,46.12,33.17,53.16,55a.68.68,0,0,1-.44.85A.56.56,0,0,1,131.72,410.62Z" style="fill:#fff"></path><path d="M91.94,391a.62.62,0,0,1-.56-.34.63.63,0,0,1,.25-.86,39.06,39.06,0,0,1,26.45-2.35c-1.42-10.71.93-19.23,2.35-24.37l0-.19a.65.65,0,0,1,.79-.45.64.64,0,0,1,.44.79l0,.19c-1.44,5.2-3.84,13.91-2.18,24.81a.61.61,0,0,1-.21.58.65.65,0,0,1-.6.13,37.72,37.72,0,0,0-26.43,2A.67.67,0,0,1,91.94,391Z" style="fill:#fff"></path></g></g><g id="freepik--Device--inject-34"><g id="freepik--Mobile--inject-34"><path d="M265.59,37.15,136,112a14,14,0,0,0-7,11.58V405c0,4.75,2.93,10.29,6.54,12.38s9.87,1.85,14-.52l129.09-74.53a16.5,16.5,0,0,0,7.44-12.88V49c0-4.74-2.93-10.28-6.55-12.37S269.7,34.78,265.59,37.15Z" style="fill:#37474f"></path><path d="M147.81,417.75c-4,1.55-9.08,1.47-12.2-.33-3.61-2.09-6.54-7.63-6.54-12.38V123.54a13.3,13.3,0,0,1,1.88-6.38L143,124a14.44,14.44,0,0,0-3.47,8.67V411.08C139.48,416.79,143.09,419.5,147.81,417.75Z" style="fill:#263238"></path><path d="M146,121.28a14.57,14.57,0,0,0-6.56,11.37V411.08c0,6.41,4.54,9,10.09,5.83l129.11-74.54a16.5,16.5,0,0,0,7.44-12.88V49c0-4.72-3.35-6.66-7.44-4.29Z" style="fill:#455a64"></path><path d="M152.77,139.65a15.62,15.62,0,0,0-7.07,12.24V388.73c0,4.51,3.17,6.34,7.07,4.09l121.45-70.13a15.68,15.68,0,0,0,7.07-12.25V73.6c0-4.49-3.18-6.32-7.07-4.08Z" style="fill:#37474f"></path><path d="M272.34,304.55V70.61l-119.57,69a15.62,15.62,0,0,0-7.07,12.24v234l119.57-69A15.7,15.7,0,0,0,272.34,304.55Z" style="fill:#9BBF19"></path><path d="M272.34,304.55V70.61l-119.57,69a15.62,15.62,0,0,0-7.07,12.24v234l119.57-69A15.7,15.7,0,0,0,272.34,304.55Z" style="fill:#fff;opacity:0.6000000000000001"></path><path d="M203.37,97.92,224.9,85.49c1.28-.74,2.32-.22,2.32,1.18a5,5,0,0,1-2.32,3.86L203.37,103c-1.28.75-2.32.22-2.32-1.17A5,5,0,0,1,203.37,97.92Z"></path><path d="M240.31,76.56c1.2-.69,2.18-.13,2.18,1.26a4.84,4.84,0,0,1-2.18,3.78c-1.21.69-2.18.13-2.18-1.26A4.82,4.82,0,0,1,240.31,76.56Z"></path><path d="M249,71.53c1.2-.7,2.18-.14,2.18,1.26A4.81,4.81,0,0,1,249,76.56c-1.2.7-2.18.14-2.18-1.26A4.81,4.81,0,0,1,249,71.53Z"></path><path d="M179.23,111.83c1.21-.7,2.19-.13,2.19,1.26a4.79,4.79,0,0,1-2.19,3.77c-1.2.7-2.18.14-2.18-1.25A4.81,4.81,0,0,1,179.23,111.83Z"></path><path d="M188,106.79c1.21-.69,2.19-.13,2.19,1.26a4.83,4.83,0,0,1-2.18,3.78c-1.21.7-2.19.13-2.19-1.26A4.84,4.84,0,0,1,188,106.79Z"></path></g><g id="freepik--Character--inject-34"><path d="M272.34,280v24.57a15.91,15.91,0,0,1-5.22,10.89,11.11,11.11,0,0,1-1.85,1.36L263,318.11C252.72,309.55,244.92,303,244.92,303c-17.7-20.9-15.66-36.65-13.5-36.83.25,0,.68-.12,1.28-.25h0a39.23,39.23,0,0,1,32.72,8.27C267.13,275.54,269.5,277.56,272.34,280Z" style="fill:#ffa8a7"></path><path d="M267.12,315.44a11.11,11.11,0,0,1-1.85,1.36L263,318.11l-92.44,53.37c-2.9-11.1-7.68-29.49-7.74-29.82,0-.17,10.45-15.78,11.16-34s-4.36-26.21-6-28c.74-.3,17.22-4.94,17.22-4.94l32.86-6.56,14.6-2.29h0s19.8,9.7,30.61,31.38A34.07,34.07,0,0,1,267.12,315.44Z" style="fill:#9BBF19"></path><path d="M267.12,315.44a11.11,11.11,0,0,1-1.85,1.36L263,318.11l-92.44,53.37c-2.9-11.1-7.68-29.49-7.74-29.82,0-.17,10.45-15.78,11.16-34s-4.36-26.21-6-28c.74-.3,17.22-4.94,17.22-4.94l32.86-6.56,14.6-2.29h0s19.8,9.7,30.61,31.38A34.07,34.07,0,0,1,267.12,315.44Z" style="opacity:0.2"></path><path d="M168,279.67c-9.88,1.1-16.5,5.81-22.32,15.68v90.49l13.87-8,12.89-35S188.32,290.38,168,279.67Z" style="fill:#ffa8a7"></path><path d="M183.89,262.3c.35-1.23-2.56-5.24-3.21-6.35-1.27-2.18-2.67-4.29-4.13-6.35-3.09-4.34-6-8.78-9.18-13a75.45,75.45,0,0,1-9.13-14.78c-3.07-6.9-4.61-14.67-3.14-22.08s6.24-14.36,13.18-17.35c3-14.43,15.9-26.25,30.55-28,15.17-1.82,31.24,6.21,45.88-.58,1.82-.85,3.59-2,5.59-2.17,4.47-.45,8.19,4.06,8.61,8.54s-1.54,8.8-3.43,12.87a9.4,9.4,0,0,1,2.14,17c2.51,6.53.05,14.2-4.64,19.38s-11.27,8.26-17.9,10.49-13.51,3.77-19.92,6.54A56.09,56.09,0,0,0,183.89,262.3Z" style="fill:#263238"></path><path d="M242,181c3.44,3.5,10.38,11.89,9.61,42.35-.66,25.82-9,32.18-13.25,34s-12.31.69-20.18-.64l0,12.6s11.17,7.75,14,14.79c2.18,5.5-11.74,13.14-32.87,4-8.64-3.72-15.62-13.21-15.62-13.21l.29-37.29s-4.65,4.49-12.49-2.4c-6.48-5.69-8.65-15.26-3.58-20.39s14.42-3.7,18,3.63c0,0,14.15,1.17,30.9-8S240.82,191,242,181Z" style="fill:#ffa8a7"></path><path d="M222.37,218.74a3.25,3.25,0,1,1-3.4-3.23A3.29,3.29,0,0,1,222.37,218.74Z" style="fill:#263238"></path><path d="M219.89,237.87l12.18,2.21a6.09,6.09,0,0,1-7.06,5.19A6.48,6.48,0,0,1,219.89,237.87Z" style="fill:#b16668"></path><path d="M225,245.27a6,6,0,0,0,2.47-.08,5.32,5.32,0,0,0-5.31-5.09,5.21,5.21,0,0,0-2.13.45A6.37,6.37,0,0,0,225,245.27Z" style="fill:#f28f8f"></path><path d="M248.19,208.3l-7.41-3a3.84,3.84,0,0,1,5.07-2.3A4.2,4.2,0,0,1,248.19,208.3Z" style="fill:#263238"></path><path d="M246.48,216.34a3.25,3.25,0,1,1-3.41-3.22A3.31,3.31,0,0,1,246.48,216.34Z" style="fill:#263238"></path><polygon points="231.26 215.03 233.5 233.93 243.24 229.29 231.26 215.03" style="fill:#f28f8f"></polygon><path d="M218.13,256.75c-8.3-1.1-25.38-6.05-28-12.81,0,0,.87,4.25,6,8.63s22,9.35,22,9.35Z" style="fill:#f28f8f"></path><path d="M184.6,228a8,8,0,0,0-1.36-16Z" style="fill:#263238"></path></g><g id="freepik--Icons--inject-34"><path d="M252.5,310.42c5.88-3.4,10.64-11.64,10.64-18.43s-4.76-9.53-10.64-6.14-10.63,11.64-10.63,18.42S246.63,313.81,252.5,310.42Z" style="fill:#f28f8f"></path><path d="M246.47,306c.35-.34,2-2,2.31-2.33a1.37,1.37,0,0,0,.43-1.16c0-.55-.05-2-.05-2.41a1.37,1.37,0,0,1,.47-1.06,12.3,12.3,0,0,1,3-2.46,6.6,6.6,0,0,1,2.75-.85c.34,0,.33.35.32.7s0,.75,0,1.12c0,.11,0,.2,0,.29a4.71,4.71,0,0,0,.1.58c.05.32.21.39.37.4s1.66.3,2.28.4.74-.35.88-.62.31-.55.47-.85a3.57,3.57,0,0,0,.38-1.53,5.4,5.4,0,0,0-.89-3.66,2.15,2.15,0,0,0-.82-.6,3.93,3.93,0,0,0-2.29-.07A12.27,12.27,0,0,0,249,296c-3.25,3.69-3,4-3.38,4.89a8.93,8.93,0,0,0-.63,4.26c.28,1,.69,1.45.84,1.44S246.13,306.36,246.47,306Z" style="fill:#fff;fill-rule:evenodd"></path><path d="M224.07,326.83c5.87-3.39,10.64-11.64,10.64-18.42s-4.77-9.54-10.64-6.14-10.64,11.64-10.64,18.42S218.2,330.22,224.07,326.83Z" style="fill:#fff;opacity:0.5"></path><path d="M224.16,318.44h0c-1.41.82-2.56-.05-2.56-1.94v-5.92a6.12,6.12,0,0,1,2.56-4.89h0c1.41-.82,2.56.05,2.56,1.93v5.93A6.15,6.15,0,0,1,224.16,318.44Z" style="fill:#fff"></path><path d="M222.94,321a2.93,2.93,0,0,1-1.6-.47,4.34,4.34,0,0,1-1.7-3.86.6.6,0,0,1,.6-.6.6.6,0,0,1,.6.6,3.27,3.27,0,0,0,1.14,2.85,1.94,1.94,0,0,0,1.93.05c3.51-1.59,3.79-5.75,3.74-7.46a.62.62,0,0,1,.59-.62h0a.59.59,0,0,1,.6.59c.11,4.06-1.55,7.27-4.44,8.59A3.6,3.6,0,0,1,222.94,321Z" style="fill:#fff"></path><path d="M222.64,323.86a.6.6,0,0,1-.3-1.12l3-1.75a.59.59,0,0,1,.82.22.61.61,0,0,1-.22.82l-3,1.75A.52.52,0,0,1,222.64,323.86Z" style="fill:#fff"></path><path d="M195.64,343.25c5.87-3.39,10.63-11.64,10.63-18.43s-4.76-9.53-10.63-6.14S185,330.32,185,337.11,189.76,346.64,195.64,343.25Z" style="fill:#fff;opacity:0.5"></path><path d="M194.32,330.75a1.83,1.83,0,0,1-.92-.24,2.24,2.24,0,0,1-1-2.06,5.92,5.92,0,0,1,2.71-4.7h0a2,2,0,0,1,3.27,1.89,5.92,5.92,0,0,1-2.71,4.7A2.76,2.76,0,0,1,194.32,330.75Z" style="fill:#fff"></path><path d="M204.6,324.43a.51.51,0,0,0-.69-.18l-1.15.67v-1.67a.51.51,0,0,0-.5-.5.5.5,0,0,0-.5.5v2.24l-1.66,1a.5.5,0,0,0,.25.93.45.45,0,0,0,.25-.07l1.16-.66v1.48a.5.5,0,0,0,.5.5.51.51,0,0,0,.5-.5v-2.06l1.65-1A.5.5,0,0,0,204.6,324.43Z" style="fill:#fff"></path><path d="M199.59,331.43a3.55,3.55,0,0,0-3.63.28l-1.49.86a10.11,10.11,0,0,0-4.64,8v1.06c1.47.81,3.47.67,5.69-.61a16.45,16.45,0,0,0,5.68-5.95v-.26A3.74,3.74,0,0,0,199.59,331.43Z" style="fill:#fff"></path><path d="M167.2,359.67c5.88-3.4,10.64-11.65,10.64-18.43s-4.76-9.53-10.64-6.14-10.64,11.64-10.64,18.42S161.33,363.06,167.2,359.67Z" style="fill:#fff;opacity:0.5"></path><path d="M167.2,354.72a14,14,0,0,0,6.36-11c0-4-2.85-5.69-6.36-3.67a14.07,14.07,0,0,0-6.36,11C160.85,355.11,163.69,356.75,167.2,354.72Z" style="fill:#fff"></path><path d="M167.2,167.36c5.88-3.39,10.64-11.64,10.64-18.43s-4.76-9.53-10.64-6.14-10.64,11.64-10.64,18.43S161.33,170.75,167.2,167.36Z" style="fill:#fff;opacity:0.30000000000000004"></path><path d="M167.2,147.73a14.07,14.07,0,0,0-6.36,11c0,2.41,1,4,2.56,4.4l-.7,3.51L166,163a6.94,6.94,0,0,0,1.25-.58,14,14,0,0,0,6.36-11C173.56,147.35,170.71,145.71,167.2,147.73Z" style="fill:#fff"></path><path d="M195.63,150.94c5.88-3.39,10.64-11.64,10.64-18.42s-4.76-9.54-10.64-6.15S185,138,185,144.8,189.76,154.33,195.63,150.94Z" style="fill:#fff;opacity:0.30000000000000004"></path><path d="M200.43,129.65l-1.7,1v-.89c0-.57-.3-.85-.67-.64l-4.85,2.8a1.74,1.74,0,0,0-.67,1.41v.89l-1.7,1a3.63,3.63,0,0,0-1.39,2.93v8.69c0,1.18.62,1.77,1.39,1.33l9.59-5.54a3.65,3.65,0,0,0,1.39-2.93V131C201.82,129.8,201.2,129.2,200.43,129.65Zm-7.66,12.27a.55.55,0,0,1-.14.13c-.14.07-.26,0-.32-.09a4.71,4.71,0,0,1-.32-1.8c0-2.68,1.64-5.8,3.64-7a3.73,3.73,0,0,1,.62-.28l-.59-.39a.62.62,0,0,1-.09-.68c.11-.27.31-.41.45-.32l1.34.89a.43.43,0,0,1,.14.33,1,1,0,0,1-.12.47l-1.25,2.19a.53.53,0,0,1-.13.16.2.2,0,0,1-.32,0,.79.79,0,0,1,0-.73l.54-.95a3.31,3.31,0,0,0-.63.27,7.07,7.07,0,0,0-2.94,5.62,3.81,3.81,0,0,0,.26,1.46A.77.77,0,0,1,192.77,141.92Zm2.86,1a3.54,3.54,0,0,1-.63.29l.55.44a.63.63,0,0,1,0,.68.69.69,0,0,1-.18.26.22.22,0,0,1-.28,0l-1.27-1a.43.43,0,0,1-.12-.35.91.91,0,0,1,.13-.46l1.34-2.09c.15-.23.35-.27.45-.09a.8.8,0,0,1-.07.74l-.59.92a3,3,0,0,0,.62-.27,7,7,0,0,0,3-5.62,3.72,3.72,0,0,0-.26-1.45.78.78,0,0,1,.18-.72c.18-.21.38-.22.46,0a4.62,4.62,0,0,1,.32,1.79C199.28,138.63,197.64,141.75,195.63,142.91Z" style="fill:#fff"></path></g><g id="freepik--box-character--inject-34"><path d="M257.85,88.67l-32,18.45a9.55,9.55,0,0,0-4.33,7.5v55.67c0,2.76,1.93,3.88,4.33,2.5l32-18.45a9.59,9.59,0,0,0,4.33-7.5V91.17C262.18,88.41,260.24,87.29,257.85,88.67Z" style="fill:#455a64"></path><path d="M261.82,149.05a9.64,9.64,0,0,1-4,5.29l-1.79,1-.85.5c-2.83-3.93-5.32-7.57-5.32-7.57a64.19,64.19,0,0,1-2-6.52h0a38.77,38.77,0,0,1-.94-5.12h0a9.57,9.57,0,0,1,5.54,0,9.34,9.34,0,0,1,4.23,4C257.71,142.22,259.86,145.79,261.82,149.05Z" style="fill:#9BBF19"></path><path d="M261.82,149.05a9.64,9.64,0,0,1-4,5.29l-1.79,1-.85.5c-2.83-3.93-5.32-7.57-5.32-7.57a64.19,64.19,0,0,1-2-6.52h0a38.77,38.77,0,0,1-.94-5.12h0a9.57,9.57,0,0,1,5.54,0,9.34,9.34,0,0,1,4.23,4C257.71,142.22,259.86,145.79,261.82,149.05Z" style="opacity:0.30000000000000004"></path><path d="M256.06,155.37l-.85.49L247,160.6l-1.26.72L229.3,170.8l-.67.38-.08-2.83.83-13.12c0-2.53,1.31-12.6,1.31-12.6l3.73-1.49,2.25-.89.74-.29.3-.12,6.22-2.49c.41-.15.81-.27,1.19-.37h0a2.62,2.62,0,0,1,.38-.09,8.27,8.27,0,0,1,1.48-.24h0c4.62-.36,7.09,3.11,8.23,8.66A89.47,89.47,0,0,1,256.06,155.37Z" style="fill:#9BBF19"></path><path d="M232.18,158.67s-1.56,6-2.88,12.13l-.67.39-3,1.73c-2.28,1.17-4.08,0-4.08-2.63V157.7c.84-5.28,1.8-8.84,3.19-11.18s3.63-3.06,5.95-3.89C232.8,144.2,233.67,151.7,232.18,158.67Z" style="fill:#9BBF19"></path><path d="M232.18,158.67s-1.56,6-2.88,12.13l-.67.39-3,1.73c-2.28,1.17-4.08,0-4.08-2.63V157.7c.84-5.28,1.8-8.84,3.19-11.18s3.63-3.06,5.95-3.89C232.8,144.2,233.67,151.7,232.18,158.67Z" style="opacity:0.30000000000000004"></path><path d="M235.09,113.58a5.14,5.14,0,0,0-2.9,2.7c-.68,1.73-.44,5.57.47,9.65a37.51,37.51,0,0,0,2.28,7.55,2.24,2.24,0,0,0,1.63,1.21l-.11-5-.16-3.47a18.39,18.39,0,0,0,2.16-6c.28-3.28-.31-4.5-.31-4.5Z" style="fill:#263238"></path><path d="M234.59,114.28l-3-1a2,2,0,0,1,2.26-1.48A1.87,1.87,0,0,1,234.59,114.28Z" style="fill:#263238"></path><path d="M238.52,117.84c0,5.17,3.67,8.71,8.15,7.91s8.11-5.66,8.1-10.84-3.66-8.72-8.15-7.91S238.51,112.66,238.52,117.84Z" style="fill:#263238"></path><path d="M236.42,125.64c-.73.86-1.33-.93-1.94-1.56s-2.62-1.28-3.62,1.33.92,5.68,2.42,6.22c2.2.79,3.18-1.94,3.18-1.94l.23,11.29c2.13,3.35,7.2,4.05,9.63,2.9,2.67-1.25,1-3.3-.79-4.81v-3.44a15,15,0,0,0,3.66-.44c2-.72,3-2.64,3.63-5.25a49.31,49.31,0,0,0,0-18.55c-2.24-1.6-10,.1-14.68,4.36C238.49,122.6,237.15,124.78,236.42,125.64Z" style="fill:#ffa8a7"></path><path d="M253.94,105.68c-.06-.12-.16-.23-.29-.21a.54.54,0,0,0-.27.19,18.64,18.64,0,0,1-1.78,1.69,8.5,8.5,0,0,0,0-2.8c-.09-.56-.23-1.85-.84-1.88-.36,0-.67.38-.94.72-2.45,3.07-5.63,2.41-8.57,3-2.46.52-5.43,2.2-6.54,5.16-.51,1.35-.6,2.7.41,3.4a5.53,5.53,0,0,0,3,.76c4.9.12,11.92,1.21,15.54-4.7a5.33,5.33,0,0,0,.76-2.9,5.9,5.9,0,0,0-.49-2.44Z" style="fill:#263238"></path><path d="M245.52,135.63s-4.47-.24-6-.91a4.4,4.4,0,0,1-2.16-2.07,7.38,7.38,0,0,0,1.23,2.68c1.15,1.47,7,1.67,7,1.67Z" style="fill:#f28f8f"></path><path d="M244.36,123a1.24,1.24,0,0,1-.89,1.23c-.49.08-.9-.32-.9-.92a1.24,1.24,0,0,1,.89-1.23C244,122,244.36,122.41,244.36,123Z" style="fill:#263238"></path><path d="M243.4,119.28l-1.91,1.56a1.62,1.62,0,0,1,.44-1.84A.91.91,0,0,1,243.4,119.28Z" style="fill:#263238"></path><path d="M244.2,128.87l3.69.93a2.27,2.27,0,0,1-2.5,1.86A2.13,2.13,0,0,1,244.2,128.87Z" style="fill:#b16668"></path><path d="M244.83,130.13a1.91,1.91,0,0,0-.68.13,1.76,1.76,0,0,0,1.24,1.4,1.69,1.69,0,0,0,1.27-.21A1.92,1.92,0,0,0,244.83,130.13Z" style="fill:#f28f8f"></path><path d="M252,118.59l-1.75-1.23a1.06,1.06,0,0,1,1.51-.54A1.38,1.38,0,0,1,252,118.59Z" style="fill:#263238"></path><path d="M251.42,121.43a1.24,1.24,0,0,1-.89,1.23c-.5.09-.9-.32-.9-.91a1.24,1.24,0,0,1,.89-1.23C251,120.43,251.42,120.84,251.42,121.43Z" style="fill:#263238"></path><polygon points="247.23 121.21 247.54 127.36 250.35 125.75 247.23 121.21" style="fill:#f28f8f"></polygon></g></g><g id="freepik--character--inject-34"><g id="freepik--character--inject-34"><path d="M399.08,186.1c7.83-.53,11.79,1.05,16.72,9.51,5.52,9.47,17.17,33,17.87,34.59,1.34,3,1.95,6.18-.89,8.83-7.77,7.29-22.36,19.53-22.36,19.53L405,245.36l11.38-12.67-9.61-19.05Z" style="fill:#ffa8a7"></path><path d="M416.38,232.69a37.1,37.1,0,0,0,4.22,5.92,10.93,10.93,0,0,1-5.32-4.69Z" style="fill:#f28f8f"></path><path d="M397.26,186.13a23.81,23.81,0,0,1,8.82-.12c4,.92,7.39,4.06,10.8,10.09s10.84,21.4,10.84,21.4-2.83,6.21-14.3,10.28l-13.83-19.9Z" style="fill:#9BBF19"></path><path d="M397.26,186.13a23.81,23.81,0,0,1,8.82-.12c4,.92,7.39,4.06,10.8,10.09s10.84,21.4,10.84,21.4-2.83,6.21-14.3,10.28l-13.83-19.9Z" style="opacity:0.30000000000000004"></path><path d="M330,426.61a7.61,7.61,0,0,0-.1,4.11c.39.82,2.86,3.54,7.88,4.53s11.93,0,14.9-.18,12.31,1,15.28,1.36c4.66.63,8.25-.39,10-2.08a3.13,3.13,0,0,0,.7-2.46,12.56,12.56,0,0,0-.49-3.32Z" style="fill:#37474f"></path><path d="M377.33,423.69c.09.38.18.77.25,1.17a19.54,19.54,0,0,1,.43,6.05c-.6,1.47-2.25,2.29-3.58,2.71-3.51,1.11-6.18.93-10.07.2a70.27,70.27,0,0,0-11.83-.73c-3.06.21-7.27.79-10.34.51a24.68,24.68,0,0,1-7.61-1.55c-2-.87-4.13-2-4.63-4.1-.6-4.43,1.26-6.39,3.37-7.62s5.07-1.14,8.26-1.35c2.89-.2,5-.2,7.56-.4a36.89,36.89,0,0,0,6.61-.91c1.93-.61,3.92-3.08,4.74-3.17,0,0,12.85-.1,14.08,0,1.42.12,1.85,4.51,2,5.47.14.75.17,1.55.37,2.27C377.09,422.72,377.22,423.2,377.33,423.69Z" style="fill:#455a64"></path><path d="M337.73,433c-.4-3.19-.93-10.1,4.94-14.1l.75,0a14.64,14.64,0,0,0-8.13,0c-4.7,1.25-6.78,5.05-5.61,9.07C329.68,427.94,330.73,431.83,337.73,433Z" style="fill:#fafafa"></path><path d="M354.88,417.9c-1.9,1.68-2.56,5.51-2.56,5.51-.25,1.44-2.85,1.65-2.6.27a15,15,0,0,1,2.25-5.34A4.47,4.47,0,0,1,354.88,417.9Z" style="fill:#fafafa"></path><path d="M349.55,418.55a9.33,9.33,0,0,0-2.67,5.23c-.26,1.37-2.43,1.35-2.28,0,0,0,.26-3.39,2.29-5A2.9,2.9,0,0,1,349.55,418.55Z" style="fill:#fafafa"></path><path d="M375,405.12s-.34,8.27-.8,11c-.28,1.62-2.39,3.31-7.66,3.13-3.71-.12-6.62.19-6.47-2.71l.32-8.44Z" style="fill:#ffa8a7"></path><path d="M383.23,385.64c-.19,2.25-.49,4.29.43,6.77,1.32,3.56,4.12,5.2,5.76,6.6a46.29,46.29,0,0,1,4.78,5.52c1.61,2,2,3.22,4.46,5.28,1.56,1.29,5.92,2.35,8.6,1.21,2.1-.89,2.83-1.61,2.7-4.82s-10.38-4.32-10.38-4.32Z" style="fill:#37474f"></path><path d="M408.63,396.61c.88.31,1.1,1.9,1.23,5.05.1,2.38,1.16,5.87-2.3,7.37-2.78,1.21-7.23.41-9.11-1.84-2.35-2.8-3.94-5.27-7.29-8.69-2.91-3-5.93-4-7.23-9.9-.83-3.82-.17-5.4,2.53-6.49,3.71-1.51,9.54,3.41,12.44,4.18C401.41,387,407.76,396.29,408.63,396.61Z" style="fill:#455a64"></path><path d="M398.9,386.29l-.49-.16a9.51,9.51,0,0,0-8,5c-.5,1,1,1.85,1.93,1,2.08-3.92,6.33-4.79,8-5A4.27,4.27,0,0,0,398.9,386.29Z" style="fill:#fafafa"></path><path d="M401.3,388.09a9.43,9.43,0,0,0-7.46,5c-.5,1,1,1.84,1.94,1a9.78,9.78,0,0,1,6.69-4.75C402.07,388.89,401.68,388.47,401.3,388.09Z" style="fill:#fafafa"></path><path d="M409.13,390.91l-.5,6.65s-4.22,3.09-10.27.26c-.18-.37-.69-6.31-.69-6.31Z" style="fill:#ffa8a7"></path><path d="M385.64,393s.29-7.07,10.32-8.05l.58.31a8.54,8.54,0,0,0-4.94-3.62c-3.33-.86-6,0-7.72,2.11S383.9,391.61,385.64,393Z" style="fill:#fafafa"></path><path d="M412.06,346.64c-1.43-11.63-2-18.12-2-18.12s-.29-16.36.71-31.46c.44-6.65.66-14,.8-20.63a107,107,0,0,0-1.75-22s-51.5-10.24-52.14,8.66c-.77,22.64-.17,68.15.15,74.06.46,8.31-.09,16.67.43,32.8.44,13.37,1.45,40.87,1.45,40.87,7.08,2.42,15.46,0,15.46,0s5.33-38.35,5.94-47.9c.65-10.27-.44-15.48-.44-15.48L386,299.58s.4,15.36.86,23.66,1.65,13.37,3.81,28.83c1.87,13.4,6.73,40.44,6.73,40.44a16.25,16.25,0,0,0,11.76,0S413.5,358.27,412.06,346.64Z" style="fill:#455a64"></path><path d="M405,280.55s-6.45,8.23-14.73,11.77c0,0-3.6,28.94-3.57,28.37l-.94-29.13S398.14,286.08,405,280.55Z" style="fill:#37474f"></path><polygon points="378.44 178.88 379.25 196.1 396.33 195.19 395.8 175.17 378.44 178.88" style="fill:#ffa8a7"></polygon><path d="M413.09,194.87c-1.43-4.7-6.4-8.57-12.67-8.76-1.39,0-4.33,0-4.33,0-.71,2.9-9.6,4-17.2,2.19-2.3.61-11.85,2.91-13.76,3.54-5.46,1.82-7.15,7.39-8,25.21,0,0,.17,35.14,0,51.91,9.61,5.07,24.47,4.44,35,3.37,16.6-1.68,19.07-7.69,19.07-7.69-.69-9.78-.27-13.46,0-23.12.2-7.25,2.29-14.93,2.94-23.15C415.14,206.16,414.07,198.1,413.09,194.87Z" style="fill:#9BBF19"></path><path d="M367,157.74s-4.07,6.18-3.6,6.78,3.46,1.16,3.46,1.16Z" style="fill:#f28f8f"></path><path d="M378.26,140.65c-8.24,1.74-11.53,4.15-12,18.22-.5,13.69,1.22,18.2,3,20,1.21,1.24,7.95,1.47,11.35.53,4.25-1.17,13.87-4.58,18.37-11.46,5.3-8.09,6.69-19.06,1-23.56C392,138.09,381.61,139.94,378.26,140.65Z" style="fill:#ffa8a7"></path><path d="M369.25,178.91c1,1,5.7,1.35,9.24.92l-.05-2A20,20,0,0,1,369.25,178.91Z" style="fill:#f28f8f"></path><path d="M365.13,145.93a9.66,9.66,0,0,0,7.09,1.71,5.31,5.31,0,0,0,.84,3.12,6.24,6.24,0,0,0,3.57,2.58,12.86,12.86,0,0,0-1.4,5.7,3.08,3.08,0,0,0,.39,1.8,1.15,1.15,0,0,0,2.09-.05,15.08,15.08,0,0,1,1.74-3,5.65,5.65,0,0,1,3.52-2c5.18-.56,5.82,6.2,3.75,9-3.39,4.59-6.26,1.49-6.26,1.49A15.18,15.18,0,0,0,384.89,178a22,22,0,0,0,11.29.29c4.6-6.32,7.49-9.39,9.93-14.84,5.18-11.53,2.68-18.76-1.32-21.81-.8-5.32-5-7.7-9.75-8.79-7.13-1.64-13.8,2.59-20.86,1a34.1,34.1,0,0,1-3.44-.9,1.93,1.93,0,0,0-1.39-.1,1.58,1.58,0,0,0-.67,1.58c.09,1.36,1.47,2.87,2.17,3.6a15.3,15.3,0,0,1-4.61-.27,4.29,4.29,0,0,0-1.6.06,2.87,2.87,0,0,0-1.83,2.9A6.93,6.93,0,0,0,365.13,145.93Z" style="fill:#263238"></path><path d="M404.92,143.44l4.93-2.91a2.86,2.86,0,0,0-4.93,2.91Z" style="fill:#263238"></path><path d="M305.1,205.71c1.34,2.52,16.12,29.58,20.42,33.67,3.06,2.92,7.8,4.9,12.71.69,9.15-7.85,22.83-21.19,22.83-21.19,11.11-6.47,12.27-21,7.25-26.08,0,0-4.46-3.35-11.13,2.92-11.08,10.42-25.25,26-25.25,26-2.73-3.6-5.15-6.45-8.1-10.55-2.35-3.27-6-6.7-6.15-11-.08-2.22.74-4.44,1.08-6.62.43-2.84.83-5.66,1.3-8.5a2.25,2.25,0,0,0-.15-1.68,1.68,1.68,0,0,0-2.31-.07,5.88,5.88,0,0,0-1.62,2.4l-1.33,2.9c-.21.46-.51,1-1,1-1.25,0-1.92-3.21-2.14-4.09a19.6,19.6,0,0,1-.45-5.29c.05-1.34.08-2.93-1-3.72a3.39,3.39,0,0,0-3.2,0,12,12,0,0,0-6.33,5.93c-1.79,3.81-1,8.24,0,12.15A51.24,51.24,0,0,0,305.1,205.71Z" style="fill:#ffa8a7"></path><path d="M331.93,221.76c-2.79,3.06-4.43,9.12-4.43,9.12s-.3-6.42,3-11Z" style="fill:#f28f8f"></path><path d="M369.41,190.73c-4.36.21-8.57,1.34-11.89,4.14C355,197,337,215.16,337,215.16s3.74,10,13.22,15.29l17.34-15.29S377,202.53,369.41,190.73Z" style="fill:#9BBF19"></path><g style="opacity:0.30000000000000004"><path d="M369.41,190.73c-4.36.21-8.57,1.34-11.89,4.14C355,197,337,215.16,337,215.16s3.74,10,13.22,15.29l17.34-15.29S377,202.53,369.41,190.73Z"></path></g></g></g><g id="freepik--speech-bubble--inject-34"><g id="freepik--speech-bubble--inject-34"><g id="freepik--speech-bubble--inject-34"><g id="freepik--speech-bubble--inject-34"><path d="M345.68,62.08,306.42,84.69a3.61,3.61,0,0,0-1.65,2.84v47.18a3.58,3.58,0,0,0,1.66,2.83l5.88,3.3a3.65,3.65,0,0,0,3.3,0l39.27-22.6a3.65,3.65,0,0,0,1.64-2.85V68.2a3.58,3.58,0,0,0-1.65-2.83L349,62.07A3.69,3.69,0,0,0,345.68,62.08Z" style="fill:#9BBF19"></path><path d="M314,139.88V92.7a3.64,3.64,0,0,1,1.64-2.85l39.27-22.6c.9-.53,1.64-.1,1.64,1v47.17a3.65,3.65,0,0,1-1.64,2.85l-39.27,22.6C314.7,141.35,314,140.92,314,139.88Z" style="fill:#9BBF19"></path><path d="M315.61,140.82a3.75,3.75,0,0,1-3.3,0l-5.88-3.3a3.59,3.59,0,0,1-1.66-2.83V87.53a3.38,3.38,0,0,1,.53-1.68l9.15,5.23A3.3,3.3,0,0,0,314,92.7v47.17C314,140.83,314.64,141.39,315.61,140.82Z" style="opacity:0.2"></path><path d="M356.5,67.9c-.13-.83-.81-1.12-1.63-.65l-39.26,22.6a3.44,3.44,0,0,0-1.16,1.23l-9.16-5.23a3.26,3.26,0,0,1,1.13-1.17l39.27-22.6a3.7,3.7,0,0,1,3.29,0l5.88,3.3A3.65,3.65,0,0,1,356.5,67.9Z" style="fill:#fff;opacity:0.4"></path></g><path d="M304.77,103.7l-13.22,13.45a1.46,1.46,0,0,0,.25,2.25c.27.18,9.15,5.27,9.15,5.27L314,109Z" style="fill:#9BBF19"></path><path d="M304.77,103.7l-13.22,13.45a1.46,1.46,0,0,0,.25,2.25c.27.18,9.15,5.27,9.15,5.27L314,109Z" style="opacity:0.1"></path><path d="M314,109l-13.23,13.46a1.46,1.46,0,0,0,1.25,2.46l12-1.73C315.25,123.18,315.25,109,314,109Z" style="fill:#9BBF19"></path></g><g id="freepik--video-call-icon--inject-34"><path d="M323.3,97.21,340,87.56c1.32-.77,2.4-.15,2.4,1.38v20.39a5.32,5.32,0,0,1-2.4,4.15l-16.7,9.65c-1.33.76-2.4.15-2.4-1.38V101.36A5.3,5.3,0,0,1,323.3,97.21Z" style="fill:#fff"></path><path d="M346.29,93.13l4.63-4.84c.56-.6,1-.41,1,.41v13.76a1.66,1.66,0,0,1-1.48,1.62l-3.71.33a1.34,1.34,0,0,1-1.48-1.36V95.69A4.3,4.3,0,0,1,346.29,93.13Z" style="fill:#fff"></path></g></g></g></svg>